<svg width="270" height="19" viewBox="0 0 270 19" fill="none" xmlns="http://www.w3.org/2000/svg">
<path d="M0.0859375 0.761719H3.51953C5.48828 0.761719 6.81641 0.847656 7.50391 1.01953C8.48828 1.26172 9.29297 1.76172 9.91797 2.51953C10.543 3.26953 10.8555 4.21484 10.8555 5.35547C10.8555 6.50391 10.5508 7.45312 9.94141 8.20312C9.33203 8.94531 8.49219 9.44531 7.42188 9.70312C6.64062 9.89062 5.17969 9.98438 3.03906 9.98438H1.80859V18H0.0859375V0.761719ZM1.80859 2.4375V8.29688L4.72656 8.33203C5.90625 8.33203 6.76953 8.22656 7.31641 8.01562C7.86328 7.79688 8.29297 7.44922 8.60547 6.97266C8.91797 6.48828 9.07422 5.94922 9.07422 5.35547C9.07422 4.77734 8.91797 4.25 8.60547 3.77344C8.29297 3.28906 7.87891 2.94531 7.36328 2.74219C6.85547 2.53906 6.01953 2.4375 4.85547 2.4375H1.80859ZM23.5037 0.761719L31.5428 18H29.6912L26.9842 12.3281H19.5545L16.8592 18H14.9373L23.0819 0.761719H23.5037ZM23.2928 4.41797L20.328 10.6641H26.2225L23.2928 4.41797ZM34.6755 2.4375V0.761719H44.1325V2.4375H40.2887V18H38.5309V2.4375H34.6755ZM47.0542 2.4375V0.761719H56.5112V2.4375H52.6675V18H50.9097V2.4375H47.0542ZM61.1556 0.761719H71.0345V2.46094H62.8783V7.85156H70.9642V9.53906H62.8783V16.3008H70.9642V18H61.1556V0.761719ZM76.2648 0.761719H79.6984C81.6125 0.761719 82.9094 0.839844 83.5891 0.996094C84.6125 1.23047 85.4445 1.73438 86.0852 2.50781C86.7258 3.27344 87.0461 4.21875 87.0461 5.34375C87.0461 6.28125 86.8234 7.10547 86.3781 7.81641C85.9406 8.52734 85.3117 9.06641 84.4914 9.43359C83.6711 9.79297 82.5383 9.97656 81.093 9.98438L87.2922 18H85.1594L78.9719 9.98438H77.9875V18H76.2648V0.761719ZM77.9875 2.44922V8.30859L80.9523 8.33203C82.1008 8.33203 82.9484 8.22266 83.4953 8.00391C84.05 7.78516 84.4797 7.4375 84.7844 6.96094C85.0969 6.47656 85.2531 5.9375 85.2531 5.34375C85.2531 4.76562 85.0969 4.24219 84.7844 3.77344C84.4719 3.29688 84.0617 2.95703 83.5539 2.75391C83.0461 2.55078 82.2023 2.44922 81.0227 2.44922H77.9875ZM92.9209 18V0.761719H93.2959L104.757 13.957V0.761719H106.456V18H106.069L94.7022 4.96875V18H92.9209ZM132.872 8.625C132.522 8.625 132.272 8.71667 132.122 8.9C131.989 9.06667 131.922 9.23333 131.922 9.4C131.922 9.55 131.956 9.80833 132.022 10.175C132.106 10.5417 132.147 11.025 132.147 11.625C132.147 12.9417 131.839 14.1417 131.222 15.225C131.822 15.7417 132.297 16.1417 132.647 16.425C132.997 16.6917 133.456 16.975 134.022 17.275C134.589 17.5583 135.114 17.7167 135.597 17.75V18C135.581 18 135.439 18 135.172 18C134.922 18 134.739 18 134.622 18C134.522 18 134.322 17.9917 134.022 17.975C133.739 17.9583 133.506 17.9333 133.322 17.9C133.139 17.85 132.897 17.7917 132.597 17.725C132.297 17.6583 132.031 17.5667 131.797 17.45C131.197 17.1833 130.672 16.875 130.222 16.525C129.039 17.675 127.497 18.25 125.597 18.25C123.164 18.25 121.281 17.7417 119.947 16.725C118.614 15.7083 117.947 14.2667 117.947 12.4C117.947 10.3333 118.956 8.79167 120.972 7.775C120.339 6.75833 120.022 5.64167 120.022 4.425C120.022 3.19167 120.472 2.175 121.372 1.375C122.306 0.558332 123.531 0.149999 125.047 0.149999C125.897 0.149999 126.706 0.316666 127.472 0.65C128.239 0.966666 128.847 1.39167 129.297 1.925L128.847 4.75H128.597C128.597 3.55 128.272 2.60833 127.622 1.925C126.972 1.24167 126.139 0.9 125.122 0.9C124.122 0.9 123.306 1.23333 122.672 1.9C122.056 2.56667 121.747 3.4 121.747 4.4C121.747 5.4 122.056 6.34167 122.672 7.225C123.289 8.10833 124.497 9.35 126.297 10.95C128.097 12.55 129.414 13.7 130.247 14.4C130.597 13.6333 130.772 12.8417 130.772 12.025C130.772 11.2083 130.589 10.4417 130.222 9.725C129.872 8.99167 129.347 8.625 128.647 8.625H128.272V8.375H133.247V8.625H132.872ZM129.372 15.8C125.106 12.2833 122.439 9.80833 121.372 8.375C120.306 9.375 119.772 10.6833 119.772 12.3C119.772 13.9 120.281 15.1667 121.297 16.1C122.331 17.0333 123.764 17.5 125.597 17.5C127.131 17.5 128.389 16.9333 129.372 15.8ZM144.155 0.761719H147.589C149.558 0.761719 150.886 0.847656 151.573 1.01953C152.558 1.26172 153.362 1.76172 153.987 2.51953C154.612 3.26953 154.925 4.21484 154.925 5.35547C154.925 6.50391 154.62 7.45312 154.011 8.20312C153.401 8.94531 152.561 9.44531 151.491 9.70312C150.71 9.89062 149.249 9.98438 147.108 9.98438H145.878V18H144.155V0.761719ZM145.878 2.4375V8.29688L148.796 8.33203C149.976 8.33203 150.839 8.22656 151.386 8.01562C151.933 7.79688 152.362 7.44922 152.675 6.97266C152.987 6.48828 153.144 5.94922 153.144 5.35547C153.144 4.77734 152.987 4.25 152.675 3.77344C152.362 3.28906 151.948 2.94531 151.433 2.74219C150.925 2.53906 150.089 2.4375 148.925 2.4375H145.878ZM160.624 0.761719H164.057C165.971 0.761719 167.268 0.839844 167.948 0.996094C168.971 1.23047 169.804 1.73438 170.444 2.50781C171.085 3.27344 171.405 4.21875 171.405 5.34375C171.405 6.28125 171.182 7.10547 170.737 7.81641C170.3 8.52734 169.671 9.06641 168.85 9.43359C168.03 9.79297 166.897 9.97656 165.452 9.98438L171.651 18H169.518L163.331 9.98438H162.346V18H160.624V0.761719ZM162.346 2.44922V8.30859L165.311 8.33203C166.46 8.33203 167.307 8.22266 167.854 8.00391C168.409 7.78516 168.839 7.4375 169.143 6.96094C169.456 6.47656 169.612 5.9375 169.612 5.34375C169.612 4.76562 169.456 4.24219 169.143 3.77344C168.831 3.29688 168.421 2.95703 167.913 2.75391C167.405 2.55078 166.561 2.44922 165.382 2.44922H162.346ZM185.483 0.328125C188.092 0.328125 190.276 1.19922 192.034 2.94141C193.792 4.68359 194.671 6.82812 194.671 9.375C194.671 11.8984 193.792 14.0391 192.034 15.7969C190.284 17.5547 188.147 18.4336 185.624 18.4336C183.069 18.4336 180.913 17.5586 179.155 15.8086C177.397 14.0586 176.518 11.9414 176.518 9.45703C176.518 7.80078 176.917 6.26562 177.714 4.85156C178.518 3.4375 179.612 2.33203 180.995 1.53516C182.378 0.730469 183.874 0.328125 185.483 0.328125ZM185.565 2.01562C184.292 2.01562 183.085 2.34766 181.944 3.01172C180.803 3.67578 179.913 4.57031 179.272 5.69531C178.631 6.82031 178.311 8.07422 178.311 9.45703C178.311 11.5039 179.018 13.2344 180.432 14.6484C181.854 16.0547 183.565 16.7578 185.565 16.7578C186.901 16.7578 188.135 16.4336 189.268 15.7852C190.409 15.1367 191.296 14.25 191.928 13.125C192.569 12 192.889 10.75 192.889 9.375C192.889 8.00781 192.569 6.77344 191.928 5.67188C191.296 4.5625 190.401 3.67578 189.245 3.01172C188.089 2.34766 186.862 2.01562 185.565 2.01562ZM200.288 18V0.761719H203.862C206.44 0.761719 208.311 0.96875 209.475 1.38281C211.147 1.96875 212.452 2.98438 213.389 4.42969C214.334 5.875 214.807 7.59766 214.807 9.59766C214.807 11.3242 214.432 12.8438 213.682 14.1562C212.94 15.4688 211.971 16.4375 210.776 17.0625C209.588 17.6875 207.92 18 205.772 18H200.288ZM201.94 16.3711H203.932C206.315 16.3711 207.967 16.2227 208.889 15.9258C210.186 15.5039 211.206 14.7461 211.948 13.6523C212.69 12.5508 213.061 11.207 213.061 9.62109C213.061 7.95703 212.659 6.53516 211.854 5.35547C211.049 4.17578 209.928 3.36719 208.491 2.92969C207.413 2.60156 205.635 2.4375 203.159 2.4375H201.94V16.3711ZM220.366 0.761719H222.088V11.168C222.088 12.4023 222.112 13.1719 222.159 13.4766C222.244 14.1562 222.444 14.7266 222.756 15.1875C223.069 15.6406 223.549 16.0234 224.198 16.3359C224.846 16.6406 225.498 16.793 226.155 16.793C226.725 16.793 227.272 16.6719 227.795 16.4297C228.319 16.1875 228.756 15.8516 229.108 15.4219C229.459 14.9922 229.717 14.4727 229.881 13.8633C229.998 13.4258 230.057 12.5273 230.057 11.168V0.761719H231.78V11.168C231.78 12.707 231.627 13.9531 231.323 14.9062C231.026 15.8516 230.424 16.6758 229.518 17.3789C228.619 18.082 227.53 18.4336 226.248 18.4336C224.858 18.4336 223.666 18.1016 222.674 17.4375C221.682 16.7734 221.018 15.8945 220.682 14.8008C220.471 14.1289 220.366 12.918 220.366 11.168V0.761719ZM254.248 3.96094L252.889 5.00391C252.139 4.02734 251.236 3.28906 250.182 2.78906C249.135 2.28125 247.983 2.02734 246.725 2.02734C245.35 2.02734 244.076 2.35938 242.904 3.02344C241.733 3.67969 240.822 4.56641 240.174 5.68359C239.533 6.79297 239.213 8.04297 239.213 9.43359C239.213 11.5352 239.932 13.2891 241.369 14.6953C242.815 16.1016 244.635 16.8047 246.83 16.8047C249.244 16.8047 251.264 15.8594 252.889 13.9688L254.248 15C253.389 16.0938 252.315 16.9414 251.026 17.543C249.744 18.1367 248.311 18.4336 246.725 18.4336C243.709 18.4336 241.33 17.4297 239.588 15.4219C238.127 13.7266 237.397 11.6797 237.397 9.28125C237.397 6.75781 238.279 4.63672 240.045 2.91797C241.819 1.19141 244.037 0.328125 246.701 0.328125C248.311 0.328125 249.764 0.648437 251.061 1.28906C252.358 1.92188 253.42 2.8125 254.248 3.96094ZM259.889 0.761719H269.768V2.46094H261.611V7.85156H269.697V9.53906H261.611V16.3008H269.697V18H259.889V0.761719Z" fill="black"/>
</svg>
